<?xml version="1.0" encoding="UTF-8" standalone="no"?>
<!-- Created with Inkscape (http://www.inkscape.org/) -->

<svg
   width="256"
   height="256"
   viewBox="0 0 67.733332 67.733332"
   version="1.1"
   id="svg5"
   inkscape:version="1.1.2 (0a00cf5339, 2022-02-04)"
   sodipodi:docname="icon.svg"
   inkscape:export-filename="/home/george/projects/w2midi_qt/icons/icon.png"
   inkscape:export-xdpi="24"
   inkscape:export-ydpi="24"
   xmlns:inkscape="http://www.inkscape.org/namespaces/inkscape"
   xmlns:sodipodi="http://sodipodi.sourceforge.net/DTD/sodipodi-0.dtd"
   xmlns:xlink="http://www.w3.org/1999/xlink"
   xmlns="http://www.w3.org/2000/svg"
   xmlns:svg="http://www.w3.org/2000/svg">
  <sodipodi:namedview
     id="namedview7"
     pagecolor="#ffffff"
     bordercolor="#666666"
     borderopacity="1.0"
     inkscape:pageshadow="2"
     inkscape:pageopacity="0.0"
     inkscape:pagecheckerboard="false"
     inkscape:document-units="mm"
     showgrid="false"
     height="210mm"
     inkscape:zoom="1.8864746"
     inkscape:cx="50.623529"
     inkscape:cy="129.34179"
     inkscape:window-width="1920"
     inkscape:window-height="1005"
     inkscape:window-x="0"
     inkscape:window-y="0"
     inkscape:window-maximized="1"
     inkscape:current-layer="layer2"
     showguides="true"
     inkscape:snap-bbox="false"
     inkscape:guide-bbox="true"
     units="px"
     width="256px">
    <sodipodi:guide
       position="87.618888,221.18497"
       orientation="1,0"
       id="guide2381" />
    <inkscape:grid
       type="xygrid"
       id="grid2501" />
  </sodipodi:namedview>
  <defs
     id="defs2">
    <linearGradient
       inkscape:collect="always"
       id="linearGradient2497">
      <stop
         style="stop-color:#ffffff;stop-opacity:1;"
         offset="0"
         id="stop2493" />
      <stop
         style="stop-color:#d7d7d7;stop-opacity:1"
         offset="1"
         id="stop2495" />
    </linearGradient>
    <linearGradient
       inkscape:collect="always"
       xlink:href="#linearGradient2497"
       id="linearGradient2499"
       x1="0.18181315"
       y1="0.67250788"
       x2="68.0877"
       y2="67.553001"
       gradientUnits="userSpaceOnUse" />
  </defs>
  <g
     inkscape:groupmode="layer"
     id="layer2"
     inkscape:label="Слой 2"
     style="display:inline">
    <circle
       style="display:inline;fill:#000000;fill-opacity:1;stroke:#000000;stroke-width:0;stroke-miterlimit:4;stroke-dasharray:none;stroke-opacity:1"
       id="path15247-7"
       cx="34.133804"
       cy="34.199924"
       r="32.766682" />
    <circle
       style="fill:url(#linearGradient2499);fill-opacity:1;stroke:#000000;stroke-width:0;stroke-miterlimit:4;stroke-dasharray:none;stroke-opacity:1"
       id="path15247"
       cx="33.866665"
       cy="33.866665"
       r="32.766682" />
    <path
       id="path15247-8"
       style="display:inline;fill:#000000;fill-opacity:1;stroke:#000000;stroke-width:0;stroke-miterlimit:4;stroke-dasharray:none;stroke-opacity:1"
       d="m 42.620401,8.9606278 c -2.208228,-0.00168 -4.467869,0.9535469 -6.201824,1.8864442 -1.701946,0.915676 -2.877551,1.81568 -2.921455,1.849371 l -0.02041,-0.02364 c 0,0 -4.039374,3.438553 -7.838606,3.509079 -1.848542,0.03432 -3.992389,-0.816174 -5.647333,-1.700541 -1.652847,-0.883245 -2.805516,-1.769211 -2.808444,-1.771463 l -0.0021,-0.0014 c -0.0029,-0.0022 -1.214373,-0.943218 -2.94456,-1.881036 -0.741381,-0.401818 -1.579913,-0.807429 -2.469791,-1.1406556 a 32.766678,32.766678 0 0 0 -0.920924,0.8949546 c 1.010738,0.332586 1.994837,0.787176 2.846592,1.248855 1.647617,0.893062 2.790893,1.780956 2.790893,1.780956 l 5.51e-4,5.51e-4 0.0015,7.34e-4 c 0,0 1.22793,0.944815 2.968914,1.87516 1.740987,0.930349 4.005358,1.875903 6.206482,1.835045 4.313878,-0.08011 8.252937,-3.518093 8.485151,-3.723638 l 0.01755,0.02293 c 0,0 1.146621,-0.883212 2.796266,-1.77075 1.649639,-0.887534 3.792972,-1.751242 5.660946,-1.74979 1.875054,0.0015 4.016912,0.871594 5.664528,1.764658 1.647617,0.893062 2.790892,1.780956 2.790892,1.780956 l 5.5e-4,7.33e-4 0.0015,7.34e-4 c 0,0 1.22793,0.944634 2.968917,1.874982 1.740986,0.930348 4.004823,1.875903 6.205943,1.835043 0.605545,-0.01121 1.204597,-0.09152 1.788658,-0.218857 a 32.766678,32.766678 0 0 0 -0.646324,-1.042832 c -0.38726,0.06983 -0.776444,0.113348 -1.163243,0.120534 -1.84854,0.03432 -3.992568,-0.815993 -5.647516,-1.700362 -1.652845,-0.883246 -2.805511,-1.769213 -2.808443,-1.771464 l -0.0021,-0.0015 c -0.0029,-0.0022 -1.214428,-0.943222 -2.944615,-1.88104 -1.73239,-0.9388912 -3.99273,-1.9009403 -6.208033,-1.9026851 z M 8.0656677,19.286732 c -1.3314638,-0.001 -2.6808072,0.346932 -3.9231524,0.827077 a 32.766678,32.766678 0 0 0 -0.6687548,1.532726 c 1.4476407,-0.670721 3.1045347,-1.219743 4.5911914,-1.218587 1.8750519,0.0015 4.0174491,0.871774 5.6650651,1.764836 1.647618,0.893064 2.790177,1.780956 2.790177,1.780956 l 0.0015,5.5e-4 7.33e-4,7.34e-4 c 0,0 1.22793,0.944815 2.968917,1.875161 1.740984,0.930347 4.005356,1.875904 6.206479,1.835043 4.314966,-0.0801 8.255303,-3.519682 8.485688,-3.723637 l 0.01773,0.02293 c 0,0 1.146624,-0.88321 2.796266,-1.770746 1.649647,-0.887535 3.79226,-1.751245 5.66023,-1.749795 1.875053,0.0015 4.017445,0.871596 5.665065,1.764658 1.647616,0.893063 2.790176,1.780956 2.790176,1.780956 l 0.0015,7.35e-4 7.33e-4,7.34e-4 c 0,0 1.227933,0.944636 2.968917,1.874982 1.740983,0.930349 4.005356,1.875902 6.20648,1.835044 1.978539,-0.03673 3.891111,-0.792342 5.407163,-1.619229 a 32.766678,32.766678 0 0 0 -0.310193,-1.176212 c -1.45512,0.824904 -3.311313,1.620616 -5.1181,1.654154 -1.84854,0.03432 -3.992393,-0.815991 -5.647336,-1.700361 C 52.9693,23.996194 51.81591,23.110229 51.812983,23.107978 l -0.0021,-0.0015 c -0.0028,-0.0022 -1.214375,-0.943253 -2.944558,-1.881072 -1.732274,-0.938947 -3.992616,-1.900996 -6.207914,-1.902742 -2.208228,-0.0017 -4.467867,0.953548 -6.201824,1.886445 -1.701141,0.91524 -2.875932,1.814137 -2.920919,1.848654 l -0.02024,-0.02293 c 0,0 -4.039376,3.438554 -7.838606,3.509078 -1.848543,0.03432 -3.992568,-0.815995 -5.647513,-1.700361 -1.652371,-0.882994 -2.804854,-1.768705 -2.808444,-1.771464 0,0 -1.214973,-0.943555 -2.947246,-1.882504 -1.732273,-0.938949 -3.992612,-1.900999 -6.2079121,-1.902743 z m 0,10.362104 c -2.2082271,-0.0017 -4.4678665,0.953726 -6.2018213,1.886624 -0.2420822,0.130244 -0.4710829,0.25969 -0.6911421,0.38757 a 32.766678,32.766678 0 0 0 -0.050859,1.362223 c 0.3774771,-0.234776 0.805614,-0.488452 1.2828817,-0.74523 1.6496448,-0.887538 3.7922606,-1.751424 5.6602302,-1.749971 1.8750646,0.0016 4.0174448,0.871792 5.6650648,1.764837 1.647621,0.89305 2.790175,1.780955 2.790175,1.780955 l 0.0015,5.5e-4 7.31e-4,7.34e-4 c 0,0 1.227931,0.944812 2.968917,1.875161 1.740985,0.930348 4.005357,1.875905 6.20648,1.835045 4.313817,-0.08009 8.25281,-3.517983 8.485152,-3.723639 l 0.01827,0.02293 c 0,0 1.146623,-0.882492 2.796266,-1.770031 1.649647,-0.887535 3.792264,-1.75196 5.66023,-1.750508 1.875067,0.0015 4.017443,0.871613 5.665065,1.764657 1.647619,0.893046 2.790176,1.780956 2.790176,1.780956 l 0.0015,7.34e-4 7.34e-4,7.34e-4 c 0,0 1.227933,0.944634 2.968916,1.874981 1.740988,0.93035 4.005352,1.875902 6.206483,1.835045 2.375375,-0.0441 4.65258,-1.123151 6.264328,-2.119095 a 32.766678,32.766678 0 0 0 0.05338,-1.425445 c -1.518974,1.012315 -3.974682,2.360157 -6.338654,2.404039 -1.848551,0.03431 -3.99239,-0.816707 -5.647337,-1.701077 C 52.969489,34.358367 51.816103,33.4724 51.813175,33.47015 l -0.0021,-0.0015 c -0.0028,-0.0023 -1.214379,-0.943277 -2.944561,-1.881073 -1.73227,-0.938926 -3.992629,-1.900922 -6.207913,-1.902742 -2.208229,-0.0017 -4.467869,0.953546 -6.201824,1.886445 -1.701141,0.915242 -2.87593,1.814134 -2.920917,1.848655 l -0.02025,-0.02293 c 0,0 -4.039376,3.438548 -7.838604,3.509076 -1.848545,0.03431 -3.99257,-0.816168 -5.647516,-1.700539 -1.652369,-0.882995 -2.804854,-1.768705 -2.808442,-1.771464 0,0 -1.214975,-0.943398 -2.947246,-1.882325 -1.732271,-0.938928 -3.992626,-1.901101 -6.2079129,-1.902922 z m 0,10.362104 c -2.1162065,-0.0017 -4.274507,0.876023 -5.9772319,1.770208 a 32.766678,32.766678 0 0 0 0.302496,1.12868 c 0.00477,-0.0024 0.00894,-0.0051 0.013785,-0.0077 1.6496447,-0.887533 3.7922618,-1.751422 5.6602309,-1.749969 1.8750401,0.0014 4.0174493,0.871764 5.6650643,1.764835 1.647616,0.893073 2.790177,1.780956 2.790177,1.780956 l 0.0015,5.5e-4 7.34e-4,7.34e-4 c 0,0 1.227931,0.944814 2.968915,1.875162 1.740986,0.930347 4.005355,1.875902 6.20648,1.835044 4.314969,-0.08009 8.255303,-3.519681 8.485689,-3.723638 l 0.01773,0.02293 c 0,0 1.146622,-0.882497 2.796264,-1.770032 1.649648,-0.887534 3.792262,-1.751956 5.660232,-1.750508 1.875041,0.0014 4.017449,0.871584 5.665066,1.764658 1.647613,0.893072 2.790175,1.780957 2.790175,1.780957 l 0.0015,7.31e-4 7.34e-4,7.35e-4 c 0,0 1.227933,0.945352 2.968916,1.875699 1.740987,0.930348 4.00535,1.875189 6.206481,1.834326 1.111082,-0.02062 2.202287,-0.267925 3.213922,-0.627201 a 32.766678,32.766678 0 0 0 0.673947,-1.544725 c -1.20958,0.56215 -2.572406,1.006618 -3.908824,1.031428 -1.848551,0.03431 -3.99239,-0.815995 -5.647337,-1.700361 -1.654944,-0.884372 -2.811307,-1.773613 -2.811307,-1.773613 -0.0035,-0.0028 -1.214708,-0.943426 -2.94456,-1.881072 -1.732277,-0.938963 -3.992606,-1.901052 -6.207914,-1.902744 -2.208227,-0.0017 -4.467867,0.953552 -6.201823,1.886445 -1.70068,0.914992 -2.874602,1.814385 -2.920202,1.849373 l -0.02095,-0.02364 c 0,0 -4.039379,3.438558 -7.838605,3.509076 -1.848545,0.03431 -3.992391,-0.815994 -5.647336,-1.700361 -1.652369,-0.882994 -2.805033,-1.768706 -2.808622,-1.771462 0,0 -1.214972,-0.943546 -2.947246,-1.882506 -1.732275,-0.938959 -3.992603,-1.901233 -6.2079135,-1.902921 z m 0,10.362103 c -0.770385,-6.42e-4 -1.5465996,0.117091 -2.3049979,0.30787 a 32.766678,32.766678 0 0 0 0.6458308,1.028025 c 0.5633081,-0.122333 1.1222549,-0.195096 1.6584513,-0.19468 1.8750399,0.0014 4.0174501,0.871765 5.6650651,1.764837 1.647616,0.893074 2.790177,1.780956 2.790177,1.780956 l 0.0015,5.51e-4 7.33e-4,7.32e-4 c 0,0 1.22793,0.944814 2.968917,1.875161 1.740984,0.930352 4.005356,1.875905 6.206479,1.835043 4.314967,-0.0801 8.255303,-3.519679 8.485688,-3.723636 l 0.01773,0.02293 c 0,0 1.146624,-0.882496 2.796266,-1.770029 1.649647,-0.887537 3.79226,-1.75196 5.66023,-1.750511 1.875041,0.0014 4.017449,0.872302 5.665065,1.765375 1.647616,0.893073 2.790176,1.780239 2.790176,1.780239 l 0.0015,7.34e-4 7.33e-4,0.0015 c 0,0 1.227933,0.944635 2.968917,1.874982 0.617973,0.330232 1.303935,0.660411 2.027573,0.949579 a 32.766678,32.766678 0 0 0 0.897604,-0.891747 c -0.844874,-0.302542 -1.663526,-0.67776 -2.387024,-1.064382 -1.654946,-0.884368 -2.81131,-1.773613 -2.81131,-1.773613 -0.0035,-0.0028 -1.214707,-0.943422 -2.944559,-1.881072 -1.732277,-0.938961 -3.992604,-1.901055 -6.207913,-1.902743 -2.208227,-0.0017 -4.467868,0.953547 -6.201823,1.886445 -1.700681,0.91499 -2.874604,1.814385 -2.920202,1.849371 l -0.02095,-0.02364 c 0,0 -4.039375,3.439266 -7.838606,3.509795 -1.848542,0.03431 -3.992389,-0.816708 -5.647336,-1.701079 -1.652368,-0.882995 -2.805033,-1.768705 -2.808621,-1.771463 0,0 -1.214972,-0.943546 -2.947246,-1.882503 -1.732275,-0.938965 -3.992602,-1.901052 -6.2079141,-1.902743 z" />
  </g>
  <g
     inkscape:label="Слой 1"
     inkscape:groupmode="layer"
     id="layer1"
     style="display:inline">
    <path
       id="path13604"
       style="fill:#000000;stroke:#000000;stroke-width:0.0916983px;stroke-linecap:butt;stroke-linejoin:miter;stroke-opacity:1"
       d="m 32.422053,8.4087611 c 0,0 1.677383,4.5566629 6.050985,8.3189109 3.662159,3.15025 -0.33794,7.310886 -0.33794,7.310886 0,0 2.565772,-3.074691 -0.569659,-6.386261 -0.61037,-0.64466 -5.010819,-3.47119 -5.010819,-3.47119 z m 1.958575,43.5874369 c 1.047285,1.892759 -0.218597,4.701206 -2.827433,6.272846 -2.608841,1.571639 -5.572724,1.311322 -6.620022,-0.581434 -1.047294,-1.89276 0.218587,-4.701211 2.827426,-6.272854 2.608845,-1.571643 5.572735,-1.311325 6.620029,0.581442 z m -1.920352,-25.39319 h 2.290097 v 27.165747 h -2.290097 z m 1.882125,15.099191 c 1.047287,1.892758 -0.218591,4.701203 -2.827426,6.272846 -2.608842,1.571642 -5.572728,1.311325 -6.620024,-0.581435 -1.047292,-1.892761 0.218592,-4.701212 2.827431,-6.27285 2.60884,-1.57164 5.572722,-1.311319 6.620019,0.581439 z m -1.920348,-25.393195 2.313618,-0.774937 -0.02354,27.940678 -2.290094,1.2e-5 z m 1.958575,14.962601 c 1.047285,1.892761 -0.218597,4.701203 -2.827433,6.272842 -2.608842,1.571641 -5.572725,1.311322 -6.620022,-0.581437 -1.047296,-1.892761 0.218586,-4.701213 2.827426,-6.272853 2.608848,-1.571647 5.57274,-1.311321 6.620029,0.581448 z m -1.958575,-22.8628439 2.267703,6.6114699 0.06061,18.023927 h -2.290097 z"
       sodipodi:nodetypes="cscsccssssscccccssssscccccsssssccccc" />
  </g>
</svg>
